<?xml version="1.0" encoding="UTF-8" standalone="no"?>
<svg
   xmlns:dc="http://purl.org/dc/elements/1.1/"
   xmlns:cc="http://creativecommons.org/ns#"
   xmlns:rdf="http://www.w3.org/1999/02/22-rdf-syntax-ns#"
   xmlns:svg="http://www.w3.org/2000/svg"
   xmlns="http://www.w3.org/2000/svg"
   xmlns:sodipodi="http://sodipodi.sourceforge.net/DTD/sodipodi-0.dtd"
   xmlns:inkscape="http://www.inkscape.org/namespaces/inkscape"
   width="24"
   height="24"
   viewBox="0 0 6.3499999 6.3500002"
   version="1.1"
   id="svg901"
   inkscape:version="1.0.1 (3bc2e813f5, 2020-09-07)"
   sodipodi:docname="no-chat.svg">
  <defs
     id="defs895" />
  <sodipodi:namedview
     id="base"
     pagecolor="#ffffff"
     bordercolor="#666666"
     borderopacity="1.0"
     inkscape:pageopacity="0.0"
     inkscape:pageshadow="2"
     inkscape:zoom="31.678384"
     inkscape:cx="12.084442"
     inkscape:cy="13.306366"
     inkscape:document-units="px"
     inkscape:current-layer="layer1"
     inkscape:document-rotation="0"
     showgrid="false"
     units="px"
     inkscape:window-width="2560"
     inkscape:window-height="1376"
     inkscape:window-x="1920"
     inkscape:window-y="34"
     inkscape:window-maximized="1" />
  <metadata
     id="metadata898">
    <rdf:RDF>
      <cc:Work
         rdf:about="">
        <dc:format>image/svg+xml</dc:format>
        <dc:type
           rdf:resource="http://purl.org/dc/dcmitype/StillImage" />
        <dc:title></dc:title>
        <cc:license
           rdf:resource="http://creativecommons.org/licenses/by/4.0/" />
        <dc:creator>
          <cc:Agent>
            <dc:title>Thomas Le Bas</dc:title>
          </cc:Agent>
        </dc:creator>
        <dc:source>the Noun Project</dc:source>
        <dc:description>NO CHAT by Thomas Le Bas from the Noun Project</dc:description>
      </cc:Work>
      <cc:License
         rdf:about="http://creativecommons.org/licenses/by/4.0/">
        <cc:permits
           rdf:resource="http://creativecommons.org/ns#Reproduction" />
        <cc:permits
           rdf:resource="http://creativecommons.org/ns#Distribution" />
        <cc:requires
           rdf:resource="http://creativecommons.org/ns#Notice" />
        <cc:requires
           rdf:resource="http://creativecommons.org/ns#Attribution" />
        <cc:permits
           rdf:resource="http://creativecommons.org/ns#DerivativeWorks" />
      </cc:License>
    </rdf:RDF>
  </metadata>
  <g
     inkscape:label="Layer 1"
     inkscape:groupmode="layer"
     id="layer1">
    <path
       d="M 4.9556879,1.6693474 H 4.3061286 L 4.5469136,1.3221691 C 4.59731,1.2437737 4.5805112,1.1429805 4.502117,1.0869841 4.4237216,1.0365875 4.3229282,1.0533863 4.2669317,1.1317817 L 3.8973544,1.6693474 H 1.3943123 c -0.1847886,0 -0.335979,0.1511906 -0.335979,0.3359787 v 2.3574516 c 0,0.1847882 0.1511904,0.3359786 0.335979,0.3359786 h 0.425573 L 1.5791004,5.0515341 c -0.050397,0.078396 -0.033598,0.1791888 0.044797,0.2351852 0.027999,0.022399 0.061597,0.027998 0.095195,0.027998 0.055997,0 0.1063925,-0.027998 0.1399911,-0.072796 l 0.369576,-0.543165 H 3.348589 l 0.3863758,0.4087744 c 0.061597,0.067196 0.1511904,0.1007947 0.2407847,0.1063936 h 0.0056 c 0.089595,0 0.1735891,-0.033598 0.2351853,-0.1007936 L 4.6309089,4.6987563 h 0.324779 c 0.1847882,0 0.3359787,-0.1511904 0.3359787,-0.3359786 V 2.0053261 c 0,-0.1847881 -0.1511905,-0.3359787 -0.3359787,-0.3359787 z M 1.3943123,4.3627777 V 2.0053261 H 3.6677688 L 2.0494709,4.3627777 Z m 3.5613756,0 H 4.490917 L 3.9813492,4.8723457 3.4941798,4.3627777 H 2.458245 L 4.0765432,2.0053261 h 0.8791447 z"
       id="path881"
       style="opacity:1;fill:#ffffff;fill-opacity:1;stroke-width:0.0559965" />
  </g>
</svg>
